<?xml version="1.0" standalone="no"?>
<!DOCTYPE svg PUBLIC "-//W3C//DTD SVG 20010904//EN"
 "http://www.w3.org/TR/2001/REC-SVG-20010904/DTD/svg10.dtd">
<svg version="1.0" xmlns="http://www.w3.org/2000/svg"
 width="700.000000pt" height="700.000000pt" viewBox="0 0 700.000000 700.000000"
 preserveAspectRatio="xMidYMid meet">
<metadata>
Created by potrace 1.11, written by Peter Selinger 2001-2013
</metadata>
<g transform="translate(0.000000,700.000000) scale(0.100000,-0.100000)"
fill="#000000" stroke="none">
<path d="M0 3500 l0 -3500 3500 0 3500 0 0 3500 0 3500 -3500 0 -3500 0 0
-3500z m2509 1113 c24 -23 63 -121 222 -558 105 -291 254 -701 330 -909 77
-209 139 -392 139 -407 0 -53 -24 -59 -228 -59 -237 0 -239 1 -281 109 -17 45
-45 117 -62 161 l-30 80 -373 0 -373 0 -57 -154 c-32 -85 -67 -163 -78 -173
-18 -16 -41 -18 -230 -18 -196 0 -211 1 -224 19 -8 11 -14 28 -14 38 0 10 151
431 335 935 261 712 341 923 361 941 25 22 30 22 279 22 l255 0 29 -27z m2652
0 c266 -74 408 -254 409 -514 0 -82 -20 -164 -53 -219 -30 -49 -93 -116 -133
-141 -19 -11 -34 -24 -34 -28 0 -3 16 -15 36 -26 48 -26 139 -125 169 -186 77
-152 71 -357 -16 -520 -62 -116 -198 -217 -349 -258 -123 -34 -243 -41 -728
-41 l-463 0 -24 25 -25 24 0 936 c0 930 0 935 21 956 20 20 26 20 567 17 523
-4 550 -5 623 -25z"/>
<path d="M2096 3799 c-69 -199 -125 -364 -123 -366 2 -2 119 -2 259 -1 l254 3
-125 357 c-69 196 -129 359 -132 362 -3 4 -63 -156 -133 -355z"/>
<path d="M4450 4076 l0 -206 223 0 c194 0 227 3 262 19 85 38 130 140 106 236
-16 64 -36 91 -90 123 -46 27 -47 27 -273 30 l-228 4 0 -206z"/>
<path d="M4450 3281 l0 -231 223 0 c124 0 239 5 260 11 48 13 102 61 129 113
43 83 23 212 -44 272 -61 56 -76 59 -330 62 l-238 3 0 -230z"/>
</g>
</svg>
